<?xml version="1.0" standalone="no"?>
<!DOCTYPE svg PUBLIC "-//W3C//DTD SVG 20010904//EN"
 "http://www.w3.org/TR/2001/REC-SVG-20010904/DTD/svg10.dtd">
<svg version="1.0" xmlns="http://www.w3.org/2000/svg"
 width="1024.000000pt" height="1024.000000pt" viewBox="0 0 1024.000000 1024.000000"
 preserveAspectRatio="xMidYMid meet">
<metadata>
Created by potrace 1.11, written by Peter Selinger 2001-2013
</metadata>
<g transform="translate(0.000000,1024.000000) scale(0.100000,-0.100000)"
fill="#000000" stroke="none">
<path d="M5057 10234 c-1 -1 -60 -4 -132 -7 -71 -4 -141 -8 -155 -11 -14 -2
-53 -7 -87 -10 -35 -4 -68 -8 -75 -11 -7 -2 -29 -6 -49 -9 -20 -3 -42 -8 -50
-10 -8 -3 -31 -7 -51 -10 -21 -3 -73 -15 -115 -27 -43 -11 -88 -23 -99 -25
-39 -7 -257 -85 -354 -126 -96 -40 -381 -184 -390 -197 -3 -4 -27 -20 -55 -35
-70 -40 -232 -155 -350 -249 -88 -71 -305 -280 -390 -377 -39 -45 -155 -193
-177 -228 -22 -34 -36 -55 -70 -103 -41 -58 -147 -250 -203 -369 -27 -58 -50
-107 -52 -109 -1 -2 -82 -5 -180 -6 -190 -2 -219 -8 -288 -56 -67 -45 -109
-110 -123 -188 -14 -79 -9 -2060 6 -2096 25 -61 38 -81 78 -122 42 -44 105
-78 159 -87 17 -2 101 -5 188 -5 l158 -1 69 -142 c87 -178 125 -247 210 -373
58 -86 91 -131 175 -239 73 -96 305 -328 410 -412 33 -27 62 -51 65 -54 3 -4
39 -31 80 -61 41 -29 77 -57 78 -61 2 -5 8 -8 14 -8 5 0 24 -11 41 -24 101
-76 376 -225 562 -304 119 -50 336 -126 391 -136 16 -2 45 -9 64 -15 38 -12
298 -58 370 -65 151 -16 213 -20 375 -20 165 -1 347 8 399 19 12 2 41 6 66 9
25 3 56 7 70 10 14 3 41 7 60 10 375 57 849 253 1205 498 120 82 160 112 206
150 24 20 62 51 84 68 87 68 371 358 399 407 8 15 17 27 59 76 37 44 175 255
224 342 27 50 75 143 106 208 l56 117 148 1 c190 1 211 3 265 26 91 41 158
125 176 220 11 64 9 2046 -2 2088 -21 72 -97 160 -166 192 -53 24 -70 26 -245
28 -140 2 -180 6 -184 16 -17 53 -211 415 -229 429 -4 3 -14 18 -22 34 -22 43
-204 281 -284 371 -145 164 -334 339 -492 456 -98 72 -229 159 -241 159 -3 0
-14 6 -22 14 -21 18 -228 126 -311 161 -36 15 -80 34 -97 42 -162 70 -460 156
-653 187 -19 3 -46 8 -60 11 -14 3 -47 8 -75 11 -27 3 -63 7 -80 10 -66 9
-400 24 -408 18z m1708 -1933 c226 -42 382 -125 562 -300 66 -64 144 -206 169
-307 27 -108 27 -814 0 -954 -3 -14 -7 -43 -11 -65 -3 -22 -12 -64 -20 -95 -8
-30 -16 -66 -19 -80 -11 -53 -100 -284 -116 -300 -3 -3 -6 -11 -8 -18 -3 -17
-92 -168 -125 -213 -9 -13 -38 -53 -65 -89 -65 -90 -281 -305 -377 -377 -271
-203 -534 -312 -868 -363 -109 -16 -191 -18 -767 -18 -557 1 -661 3 -760 18
-159 24 -266 49 -345 80 -11 4 -42 16 -70 25 -136 48 -309 145 -460 258 -167
126 -392 375 -500 553 -88 147 -166 341 -210 524 -43 178 -52 297 -50 705 2
384 6 413 74 550 41 81 55 101 140 190 146 155 377 263 601 281 41 4 76 8 78
9 1 1 694 1 1540 0 1213 -1 1552 -4 1607 -14z"/>
<path d="M4041 7638 c-62 -189 -118 -348 -125 -354 -9 -10 -89 -40 -131 -50
-5 -2 -139 -46 -297 -100 l-286 -96 361 -122 c245 -82 362 -126 363 -136 9
-48 232 -691 237 -683 4 6 48 134 98 284 50 151 102 306 116 346 l25 72 354
118 c194 64 350 120 346 124 -4 3 -99 36 -212 73 -113 37 -212 70 -220 73 -8
3 -19 7 -25 9 -5 1 -37 12 -70 24 -33 12 -69 24 -80 26 -11 3 -27 8 -35 11 -8
3 -21 7 -29 9 -8 1 -19 9 -26 16 -7 7 -63 167 -126 356 -62 188 -116 342 -119
342 -3 0 -57 -154 -119 -342z"/>
<path d="M2925 3805 c-38 -7 -90 -15 -115 -19 -24 -4 -51 -11 -60 -16 -8 -4
-18 -8 -23 -8 -58 -1 -270 -68 -427 -134 -207 -88 -404 -200 -562 -319 -46
-35 -85 -65 -88 -68 -3 -3 -36 -33 -75 -65 -196 -167 -407 -414 -558 -655 -83
-133 -179 -342 -240 -521 -48 -144 -52 -157 -92 -360 -16 -80 -26 -169 -34
-310 -7 -126 -6 -460 2 -500 3 -14 8 -43 12 -65 59 -346 376 -665 734 -739 90
-19 109 -19 990 -20 l814 -1 2 695 c2 744 1 728 54 840 39 83 60 115 123 179
121 122 229 177 389 197 72 9 2604 9 2698 0 41 -4 90 -13 110 -20 20 -8 52
-19 71 -27 121 -45 281 -205 337 -337 46 -108 46 -102 49 -817 1 -374 3 -687
3 -695 1 -14 98 -15 854 -14 599 0 868 4 907 12 30 6 67 13 81 16 65 11 247
97 314 149 209 162 345 371 381 584 23 140 25 525 3 688 -4 33 -10 86 -14 117
-20 198 -109 484 -226 733 -66 141 -214 374 -311 490 -9 11 -43 52 -75 90
-109 132 -286 300 -428 405 -33 25 -62 48 -65 51 -3 4 -52 37 -110 73 -58 36
-110 70 -117 76 -7 5 -18 10 -25 10 -7 0 -24 9 -38 20 -14 11 -30 20 -36 20
-6 0 -35 13 -65 30 -100 54 -388 160 -487 180 -68 14 -83 17 -127 28 -22 6
-88 18 -146 27 -115 19 -116 19 -211 -43 -190 -123 -506 -271 -773 -362 -99
-34 -341 -100 -420 -116 -11 -2 -30 -6 -43 -9 -56 -11 -272 -44 -322 -50 -226
-23 -666 -24 -825 -1 -16 3 -55 7 -85 10 -30 3 -104 15 -165 26 -60 11 -122
23 -137 25 -15 3 -88 21 -163 40 -346 91 -724 251 -1020 434 -106 65 -108 66
-220 46z"/>
<path d="M4075 1274 c-11 -3 -26 -7 -33 -9 -7 -3 -16 -5 -20 -6 -21 -4 -94
-66 -119 -102 -59 -86 -57 -59 -59 -625 -1 -472 0 -522 15 -523 9 -1 152 -2
319 -3 l303 -1 -3 525 c-3 524 -3 525 -26 573 -28 58 -87 119 -144 148 -32 16
-64 23 -128 25 -47 1 -94 1 -105 -2z"/>
<path d="M5980 1271 c-175 -57 -260 -239 -198 -423 43 -126 157 -201 303 -201
137 1 260 86 296 204 50 168 -14 328 -160 403 -38 20 -199 31 -241 17z"/>
</g>
</svg>
